<svg width="218" height="94" viewBox="0 0 218 94" fill="none" xmlns="http://www.w3.org/2000/svg">
<path d="M12.39 74.82C9.26333 74.82 7.04667 73.9333 5.74 72.16C4.48 70.34 3.85 67.61 3.85 63.97C3.85 61.6367 4.22333 58.1367 4.97 53.47C5.76333 48.7567 6.86 42.5267 8.26 34.78L4.55 27.29C6.74333 25.89 9.07667 24.7 11.55 23.72C14.0233 22.74 16.4967 22.25 18.97 22.25C22.33 22.25 24.9667 22.7633 26.88 23.79C28.7933 24.8167 30.2167 26.2633 31.15 28.13C32.13 29.9967 32.8533 32.19 33.32 34.71C33.8333 37.23 34.3 39.9833 34.72 42.97C35.14 45.91 35.77 48.99 36.61 52.21C37.45 55.43 38.7333 58.6967 40.46 62.01L42.14 60.89C40.8333 58.3233 39.7367 55.3367 38.85 51.93C38.01 48.5233 37.59 45.1167 37.59 41.71C37.59 38.3033 38.15 35.13 39.27 32.19C40.4367 29.25 42.1633 26.87 44.45 25.05C46.7367 23.1833 49.5833 22.25 52.99 22.25C54.0633 22.25 55.1833 22.3667 56.35 22.6C57.5633 22.7867 58.6133 23.1133 59.5 23.58C59.08 26.1 58.59 28.8767 58.03 31.91C57.47 34.8967 56.8867 37.93 56.28 41.01C55.72 44.09 55.1833 47.0067 54.67 49.76C54.2033 52.5133 53.8067 54.9167 53.48 56.97C53.2 58.9767 53.06 60.4 53.06 61.24C53.06 63.6667 53.2467 65.6733 53.62 67.26C53.9933 68.8 54.5533 70.1067 55.3 71.18C53.9467 72.0667 52.6867 72.7667 51.52 73.28C50.3533 73.7933 49.0933 74.1667 47.74 74.4C46.4333 74.6333 44.8933 74.75 43.12 74.75C39.48 74.75 36.4233 73.8867 33.95 72.16C31.5233 70.4333 29.5633 68.0533 28.07 65.02C26.5767 61.9867 25.4567 58.51 24.71 54.59C24.01 50.67 23.5433 46.5167 23.31 42.13H22.19C21.63 44.7433 21.0933 47.3567 20.58 49.97C20.1133 52.5833 19.7167 54.9167 19.39 56.97C19.11 59.0233 18.97 60.54 18.97 61.52C18.97 63.9 19.1333 65.9067 19.46 67.54C19.8333 69.1733 20.37 70.55 21.07 71.67C18.27 73.77 15.3767 74.82 12.39 74.82ZM84.0782 74.75C79.7382 74.75 76.0749 73.98 73.0882 72.44C70.1015 70.9 67.8382 68.7533 66.2982 66C64.8049 63.2 64.0582 59.98 64.0582 56.34C64.0582 52.56 64.7349 49.13 66.0882 46.05C67.4882 42.9233 69.4249 40.24 71.8982 38C74.3715 35.76 77.2415 34.0333 80.5082 32.82C83.8215 31.6067 87.3915 31 91.2182 31C95.7449 31 99.0815 32.0033 101.228 34.01C103.375 36.0167 104.448 38.5367 104.448 41.57C104.448 44.1833 103.585 46.6567 101.858 48.99C100.178 51.2767 97.4482 53.1433 93.6682 54.59C89.8882 55.99 84.8482 56.7133 78.5482 56.76C78.6882 59.7467 79.3649 62.1033 80.5782 63.83C81.8382 65.51 83.4015 66.35 85.2682 66.35C86.2015 66.35 87.1815 66.14 88.2082 65.72C89.2349 65.2533 90.0982 64.46 90.7982 63.34C91.4982 62.1733 91.8482 60.5867 91.8482 58.58C95.0215 58.58 97.5182 58.93 99.3382 59.63C101.158 60.33 102.068 61.59 102.068 63.41C102.068 65.09 101.345 66.8167 99.8982 68.59C98.4515 70.3167 96.3749 71.7867 93.6682 73C91.0082 74.1667 87.8115 74.75 84.0782 74.75ZM79.1782 51.16C82.5849 50.88 85.3149 50.25 87.3682 49.27C89.4215 48.29 90.9149 47.17 91.8482 45.91C92.7815 44.65 93.2482 43.4833 93.2482 42.41C93.2482 41.4767 92.9682 40.7067 92.4082 40.1C91.8482 39.4933 91.0549 39.19 90.0282 39.19C88.3482 39.19 86.7849 39.7733 85.3382 40.94C83.8915 42.1067 82.6315 43.6233 81.5582 45.49C80.5315 47.31 79.7382 49.2 79.1782 51.16ZM122.804 74.75C119.817 74.75 117.694 73.8633 116.434 72.09C115.174 70.3167 114.544 67.61 114.544 63.97C114.544 62.9433 114.661 61.4967 114.894 59.63C115.127 57.7167 115.431 55.5933 115.804 53.26C116.224 50.9267 116.621 48.6167 116.994 46.33C116.014 46.5167 115.057 46.7267 114.124 46.96C113.237 47.1933 112.397 47.45 111.604 47.73C111.417 47.03 111.277 46.33 111.184 45.63C111.137 44.93 111.114 44.4167 111.114 44.09C111.114 41.6633 111.814 39.9133 113.214 38.84C114.661 37.72 116.387 37.16 118.394 37.16C118.394 36.0867 118.254 34.8967 117.974 33.59C117.694 32.2833 117.204 30.8367 116.504 29.25C118.464 27.8033 120.424 26.59 122.384 25.61C124.344 24.63 126.514 24.14 128.894 24.14C130.947 24.14 132.371 24.5367 133.164 25.33C133.957 26.0767 134.354 27.3367 134.354 29.11C134.354 29.9967 134.261 31.0467 134.074 32.26C133.887 33.4733 133.654 34.8033 133.374 36.25C134.401 36.11 135.381 35.9467 136.314 35.76C137.247 35.5267 138.157 35.2933 139.044 35.06C139.231 35.5733 139.347 36.11 139.394 36.67C139.487 37.1833 139.534 37.6967 139.534 38.21C139.534 40.0767 138.951 41.71 137.784 43.11C136.664 44.4633 134.914 45.14 132.534 45.14H131.484C130.831 48.1267 130.247 51.1833 129.734 54.31C129.221 57.4367 128.964 60.3533 128.964 63.06C128.964 64.88 129.127 66.5133 129.454 67.96C129.827 69.36 130.387 70.48 131.134 71.32C128.521 73.6067 125.744 74.75 122.804 74.75Z" fill="#8B5CF6"/>
<path d="M152.82 75.5C151.327 75.5 150.2 75.16 149.44 74.48C148.693 73.7867 148.32 72.6933 148.32 71.2C148.32 70.7733 148.38 70.1267 148.5 69.26C148.62 68.3933 148.773 67.38 148.96 66.22C149.16 65.06 149.38 63.84 149.62 62.56L148.5 60.96C149.193 60.5467 149.84 60.2 150.44 59.92C151.053 59.64 151.667 59.5 152.28 59.5C152.853 59.5 153.273 59.6133 153.54 59.84C153.807 60.0533 153.94 60.4133 153.94 60.92C153.94 61.2667 153.9 61.72 153.82 62.28C153.74 62.8267 153.64 63.42 153.52 64.06C153.413 64.7 153.293 65.3267 153.16 65.94L153.36 66.04C153.84 65.0933 154.42 64.38 155.1 63.9C155.793 63.42 156.613 63.18 157.56 63.18C158.28 63.18 158.887 63.3933 159.38 63.82C159.873 64.2333 160.247 64.7933 160.5 65.5C160.753 66.1933 160.88 66.96 160.88 67.8C160.88 69.0667 160.633 70.18 160.14 71.14C159.647 72.1 158.993 72.9067 158.18 73.56C157.38 74.2 156.507 74.68 155.56 75C154.627 75.3333 153.713 75.5 152.82 75.5ZM152.28 73.18C153.067 73.18 153.767 73.04 154.38 72.76C154.993 72.4667 155.513 72.08 155.94 71.6C156.38 71.12 156.713 70.5933 156.94 70.02C157.167 69.4333 157.28 68.8467 157.28 68.26C157.28 67.9 157.213 67.5467 157.08 67.2C156.947 66.8533 156.753 66.5667 156.5 66.34C156.26 66.1133 155.98 66 155.66 66C155.167 66 154.733 66.14 154.36 66.42C154 66.7 153.693 67.0733 153.44 67.54C153.2 67.9933 153 68.5 152.84 69.06C152.693 69.6067 152.573 70.1533 152.48 70.7C152.4 71.2333 152.347 71.72 152.32 72.16C152.293 72.6 152.28 72.94 152.28 73.18ZM168.345 75.5C167.172 75.5 166.158 75.28 165.305 74.84C164.465 74.3867 163.818 73.7667 163.365 72.98C162.912 72.1933 162.685 71.28 162.685 70.24C162.685 68.8 162.998 67.54 163.625 66.46C164.265 65.3667 165.138 64.52 166.245 63.92C167.352 63.3067 168.612 63 170.025 63C170.252 63 170.478 63.0133 170.705 63.04C170.945 63.0533 171.198 63.0933 171.465 63.16C171.532 63.3467 171.585 63.5733 171.625 63.84C171.665 64.0933 171.692 64.3667 171.705 64.66C171.825 64.62 171.952 64.5867 172.085 64.56C172.232 64.5333 172.385 64.52 172.545 64.52C173.012 64.52 173.452 64.6467 173.865 64.9C174.278 65.14 174.618 65.52 174.885 66.04C175.152 66.56 175.285 67.22 175.285 68.02C175.285 69.2067 175.085 70.2667 174.685 71.2C174.298 72.12 173.772 72.9 173.105 73.54C172.438 74.18 171.692 74.6667 170.865 75C170.052 75.3333 169.212 75.5 168.345 75.5ZM168.965 73.04C169.272 73.04 169.592 72.9667 169.925 72.82C170.258 72.6733 170.585 72.4067 170.905 72.02C171.225 71.6333 171.492 71.0867 171.705 70.38C171.132 70.02 170.718 69.58 170.465 69.06C170.212 68.5267 170.085 67.94 170.085 67.3C170.085 67.1133 170.118 66.8733 170.185 66.58C170.252 66.2867 170.365 65.9867 170.525 65.68C170.698 65.3733 170.932 65.12 171.225 64.92C170.305 65.1067 169.552 65.3867 168.965 65.76C168.378 66.1333 167.918 66.5667 167.585 67.06C167.265 67.54 167.038 68.04 166.905 68.56C166.785 69.0667 166.725 69.5533 166.725 70.02C166.725 70.5533 166.812 71.0533 166.985 71.52C167.158 71.9733 167.412 72.34 167.745 72.62C168.078 72.9 168.485 73.04 168.965 73.04ZM182.642 75.5C181.469 75.5 180.455 75.28 179.602 74.84C178.762 74.3867 178.115 73.7667 177.662 72.98C177.209 72.1933 176.982 71.28 176.982 70.24C176.982 68.8 177.295 67.54 177.922 66.46C178.562 65.3667 179.435 64.52 180.542 63.92C181.649 63.3067 182.909 63 184.322 63C184.549 63 184.775 63.0133 185.002 63.04C185.242 63.0533 185.495 63.0933 185.762 63.16C185.829 63.3467 185.882 63.5733 185.922 63.84C185.962 64.0933 185.989 64.3667 186.002 64.66C186.122 64.62 186.249 64.5867 186.382 64.56C186.529 64.5333 186.682 64.52 186.842 64.52C187.309 64.52 187.749 64.6467 188.162 64.9C188.575 65.14 188.915 65.52 189.182 66.04C189.449 66.56 189.582 67.22 189.582 68.02C189.582 69.2067 189.382 70.2667 188.982 71.2C188.595 72.12 188.069 72.9 187.402 73.54C186.735 74.18 185.989 74.6667 185.162 75C184.349 75.3333 183.509 75.5 182.642 75.5ZM183.262 73.04C183.569 73.04 183.889 72.9667 184.222 72.82C184.555 72.6733 184.882 72.4067 185.202 72.02C185.522 71.6333 185.789 71.0867 186.002 70.38C185.429 70.02 185.015 69.58 184.762 69.06C184.509 68.5267 184.382 67.94 184.382 67.3C184.382 67.1133 184.415 66.8733 184.482 66.58C184.549 66.2867 184.662 65.9867 184.822 65.68C184.995 65.3733 185.229 65.12 185.522 64.92C184.602 65.1067 183.849 65.3867 183.262 65.76C182.675 66.1333 182.215 66.5667 181.882 67.06C181.562 67.54 181.335 68.04 181.202 68.56C181.082 69.0667 181.022 69.5533 181.022 70.02C181.022 70.5533 181.109 71.0533 181.282 71.52C181.455 71.9733 181.709 72.34 182.042 72.62C182.375 72.9 182.782 73.04 183.262 73.04ZM193.939 75.5C193.126 75.5 192.546 75.2467 192.199 74.74C191.852 74.2333 191.679 73.46 191.679 72.42C191.679 72.1267 191.712 71.6933 191.779 71.12C191.859 70.5467 191.959 69.8933 192.079 69.16C192.199 68.4267 192.332 67.6667 192.479 66.88C192.626 66.08 192.766 65.3067 192.899 64.56C193.032 63.8133 193.152 63.1467 193.259 62.56L192.139 60.96C192.846 60.5467 193.519 60.2 194.159 59.92C194.799 59.64 195.439 59.5 196.079 59.5C196.639 59.5 197.026 59.6133 197.239 59.84C197.466 60.0533 197.579 60.4133 197.579 60.92C197.579 61.36 197.526 61.9 197.419 62.54C197.312 63.18 197.179 63.8867 197.019 64.66C196.859 65.42 196.692 66.2067 196.519 67.02C196.346 67.82 196.199 68.6 196.079 69.36L197.339 68.24C197.819 67.8133 198.259 67.42 198.659 67.06C199.072 66.7 199.399 66.34 199.639 65.98C199.892 65.6067 200.019 65.2067 200.019 64.78C200.019 64.5933 200.006 64.4267 199.979 64.28C199.952 64.1333 199.912 63.9933 199.859 63.86C200.806 63.2867 201.699 63 202.539 63C203.099 63 203.546 63.18 203.879 63.54C204.212 63.8867 204.379 64.3467 204.379 64.92C204.379 65.4667 204.219 65.9867 203.899 66.48C203.592 66.9733 203.192 67.42 202.699 67.82C202.219 68.2067 201.726 68.5467 201.219 68.84C201.512 69.7733 201.852 70.66 202.239 71.5C202.639 72.34 203.039 73.0467 203.439 73.62C203.839 74.18 204.179 74.5333 204.459 74.68C204.192 74.96 203.819 75.1667 203.339 75.3C202.859 75.4333 202.406 75.5 201.979 75.5C201.152 75.5 200.459 75.22 199.899 74.66C199.339 74.1 198.832 73.18 198.379 71.9L197.879 70.48L195.819 71.5C195.806 71.6067 195.799 71.72 195.799 71.84C195.799 71.9467 195.799 72.0533 195.799 72.16C195.799 72.68 195.846 73.1467 195.939 73.56C196.046 73.96 196.206 74.28 196.419 74.52C195.486 75.1733 194.659 75.5 193.939 75.5ZM210.712 75.5C209.458 75.5 208.458 75.4 207.712 75.2C206.978 75.0133 206.452 74.7533 206.132 74.42C205.812 74.0867 205.652 73.72 205.652 73.32C205.652 73.0133 205.732 72.66 205.892 72.26C206.065 71.86 206.312 71.48 206.632 71.12C206.858 71.4267 207.158 71.7133 207.532 71.98C207.918 72.2333 208.338 72.44 208.792 72.6C209.245 72.7467 209.685 72.82 210.112 72.82C210.578 72.82 210.998 72.7133 211.372 72.5C211.745 72.2733 211.992 71.8933 212.112 71.36C210.058 71.12 208.585 70.6667 207.692 70C206.798 69.32 206.352 68.38 206.352 67.18C206.352 66.42 206.532 65.7733 206.892 65.24C207.252 64.7067 207.732 64.28 208.332 63.96C208.945 63.6267 209.638 63.3867 210.412 63.24C211.198 63.08 212.012 63 212.852 63C213.638 63 214.338 63.1067 214.952 63.32C215.565 63.52 216.045 63.7933 216.392 64.14C216.738 64.4867 216.912 64.8867 216.912 65.34C216.912 65.98 216.678 66.4667 216.212 66.8C215.758 67.1333 215.238 67.3 214.652 67.3C214.252 67.3 213.832 67.1667 213.392 66.9C212.952 66.6333 212.598 66.22 212.332 65.66C211.838 65.8067 211.445 66.02 211.152 66.3C210.858 66.5667 210.598 66.9533 210.372 67.46C211.892 67.6867 213.098 67.9733 213.992 68.32C214.885 68.6667 215.525 69.1067 215.912 69.64C216.312 70.16 216.512 70.8067 216.512 71.58C216.512 72.1933 216.372 72.7267 216.092 73.18C215.825 73.6333 215.472 74.0067 215.032 74.3C214.592 74.5933 214.112 74.8267 213.592 75C213.072 75.1867 212.558 75.3133 212.052 75.38C211.545 75.46 211.098 75.5 210.712 75.5Z" fill="#8B5CF6"/>
<path d="M195.562 18.6875C190.931 18.6875 185.944 19.6375 182.5 22.25C179.056 19.6375 174.069 18.6875 169.437 18.6875C165.994 18.6875 162.336 19.21 159.272 20.5637C157.539 21.3475 156.375 23.0337 156.375 24.9575V51.7475C156.375 54.835 159.272 57.115 162.265 56.355C164.592 55.7612 167.062 55.5 169.437 55.5C173.142 55.5 177.085 56.1175 180.267 57.685C181.692 58.3975 183.307 58.3975 184.709 57.685C187.891 56.0937 191.834 55.5 195.539 55.5C197.914 55.5 200.384 55.7612 202.711 56.355C205.704 57.1387 208.601 54.8587 208.601 51.7475V24.9575C208.601 23.0337 207.437 21.3475 205.704 20.5637C202.664 19.21 199.006 18.6875 195.562 18.6875ZM203.875 48.9212C203.875 50.4175 202.497 51.51 201.025 51.2487C199.244 50.9162 197.391 50.7737 195.562 50.7737C191.525 50.7737 185.706 52.3175 182.5 54.3362V27C185.706 24.9812 191.525 23.4375 195.562 23.4375C197.747 23.4375 199.909 23.6512 201.975 24.1025C203.067 24.34 203.875 25.3137 203.875 26.43V48.9212Z" fill="#8B5CF6"/>
<path d="M187.203 34.1488C186.443 34.1488 185.754 33.6738 185.516 32.9138C185.208 31.9875 185.73 30.9663 186.656 30.6813C190.314 29.4938 195.04 29.1138 199.386 29.6125C200.36 29.7313 201.073 30.61 200.954 31.5838C200.835 32.5575 199.956 33.27 198.983 33.1513C195.135 32.7 190.931 33.0563 187.749 34.0775C187.559 34.1013 187.369 34.1488 187.203 34.1488Z" fill="#8B5CF6"/>
<path d="M187.203 40.4663C186.443 40.4663 185.754 39.9913 185.516 39.2313C185.208 38.305 185.73 37.2838 186.656 36.9988C190.29 35.8113 195.04 35.4313 199.386 35.93C200.36 36.0488 201.073 36.9275 200.954 37.9013C200.835 38.875 199.956 39.5875 198.983 39.4688C195.135 39.0175 190.931 39.3738 187.749 40.395C187.559 40.4425 187.369 40.4663 187.203 40.4663Z" fill="#8B5CF6"/>
<path d="M187.203 46.7838C186.443 46.7838 185.754 46.3088 185.516 45.5488C185.208 44.6225 185.73 43.6013 186.656 43.3163C190.29 42.1288 195.04 41.7488 199.386 42.2475C200.36 42.3663 201.073 43.245 200.954 44.2188C200.835 45.1925 199.956 45.8813 198.983 45.7863C195.135 45.335 190.931 45.6913 187.749 46.7125C187.559 46.76 187.369 46.7838 187.203 46.7838Z" fill="#8B5CF6"/>
</svg>
